<svg xmlns="http://www.w3.org/2000/svg" viewBox="0 0 21.1 17" fill="#0984ae"><path d="M21 8l-4.2-6.9c-.1-.1-.2-.2-.3-.2s-.1 0-.2.1l-1.9 1.2.8.8 1.1-.7L19.7 8l-8.3 5-3.2 3.2 12.7-7.7c.1-.1.2-.3.1-.5zm-4.1-2.2L11.2 0c-.1-.1-.4-.1-.5 0L.1 10.6c-.1.2-.1.4 0 .5l5.7 5.7c.1.1.4.1.5 0L16.9 6.3c.1-.1.2-.3 0-.5.1.1 0 .1 0 0zM11 10.7c-.6.6-1.5 1-2.4 1s-1.8-.4-2.4-1C5 9.4 5 7.2 6.3 5.9c.6-.6 1.5-1 2.4-1s1.8.4 2.4 1c1.2 1.4 1.2 3.5-.1 4.8zm-4.9 4.9l-4.7-4.7 3-3c-.1 1.3.3 2.5 1.2 3.4.8.8 1.9 1.3 3 1.3h.5l-3 3zm6.8-6.8c.2-1.3-.3-2.6-1.2-3.5-.8-.8-1.9-1.3-3-1.3h-.4L11 1.3 15.7 6l-2.8 2.8z"/><path d="M10.4 8.9c0-.2 0-.4-.1-.6 0-.1-.1-.3-.3-.5-.1-.1-.3-.2-.5-.3s-.4-.1-.6-.1l-.9.3c-.2.1-.3.1-.5.1h0c-.1 0-.2 0-.2-.1-.1 0-.1-.1-.1-.1 0-.1.1-.2.2-.3.2-.2.4-.3.7-.2h.1v-.9h-.1c-.2 0-.4 0-.6.1a.76.76 0 0 0-.4.2l-.4-.4-.4.5.3.3c-.2.2-.3.5-.3.8s.1.6.3.8c.1.1.3.2.4.3.2.1.4.1.6 0l1-.3c.2-.1.3-.1.5-.1.1 0 .2.1.3.2s.1.2.1.3a.76.76 0 0 1-.2.4 1.93 1.93 0 0 1-1 .3h0v.9h.1c.3 0 .6 0 .8-.1s.4-.2.5-.3l.5.5.5-.5-.5-.5c.1-.2.2-.4.2-.7z"/></svg>