<svg xmlns="http://www.w3.org/2000/svg" width="3204.039" height="164.346" viewBox="0 0 3204.039 164.346">
  <g id="Group_68" data-name="Group 68" transform="translate(1257.997 402.225)">
    <g id="Group_6" data-name="Group 6">
      <path id="Path_18" data-name="Path 18" d="M154.477-331.037c-64.29-9.23-129.513-15.844-195.239-19.8q-83.9-5.181-168.336-5.168c-145.155,0-287.135,11.274-421.979,33.517-130.4,21.514-243.337,32.421-335.686,32.421a850.4,850.4,0,0,1-90-4.294c-67.451-7.287-91.278-21.59-93.228-22.831l-7.741-6.03-12.745.181H-1258v32.17h77.05c22.162,11.428,81.693,32.987,215.058,32.987,96.372,0,213.64-11.285,348.563-33.541,130.365-21.508,267.7-32.408,408.2-32.408q81.668-.014,163.025,5c90.854,5.65,160.871,14.872,200.573,20.972Z" fill="#1d1d1d"/>
      <path id="Path_19" data-name="Path 19" d="M154.477-322.766c-42.1-6.249-109.679-14.668-196.571-20.068q-83.238-5.137-167.006-5.12c-120.109,0-264.681,7.861-418.533,33.238-226.694,37.4-359.747,36.02-431.421,28.28-76.782-8.295-100.8-25.39-101.034-25.563l-3.951-3.082-6.3.085h-74.48v16.083h68.875c24.454,14.046,148.643,66.788,555.182-.275,230.889-38.088,440.67-36.055,575.993-27.644,89.321,5.552,158.562,14.5,199.248,20.673Z" fill="#fff"/>
      <path id="Path_20" data-name="Path 20" d="M-44.767-326.827c89.32,5.552,158.561,14.5,199.248,20.673v-5.03C113.8-317.361,44.555-326.307-44.767-331.861-180.1-340.27-389.88-342.3-620.76-304.215c-406.539,67.061-530.727,14.323-555.182.277h-68.875v5.026h68.875c24.454,14.046,148.642,66.788,555.182-.275C-389.88-337.276-180.1-335.242-44.767-326.827Z" fill="#aeb0b2"/>
    </g>
    <g id="Group_6-2" data-name="Group 6">
      <path id="Path_18-2" data-name="Path 18" d="M533.568-297.861c39.7-6.1,109.719-15.322,200.574-20.972q81.253-5.01,163.024-5c140.5,0,277.841,10.9,408.2,32.408,134.923,22.256,252.192,33.541,348.563,33.541,133.365,0,192.9-21.559,215.058-32.987h77.05v-32.17h-87.514l-12.746-.181-7.741,6.03c-1.95,1.241-25.776,15.544-93.227,22.831a850.432,850.432,0,0,1-90.006,4.294c-92.349,0-205.286-10.907-335.685-32.421-134.845-22.243-276.824-33.517-421.98-33.517q-84.327-.015-168.335,5.168c-65.727,3.956-130.95,10.57-195.24,19.8Z" fill="#1d1d1d"/>
      <path id="Path_19-2" data-name="Path 19" d="M533.568-306.159c40.687-6.174,109.927-15.121,199.248-20.673,135.323-8.411,345.1-10.444,575.993,27.644,406.54,67.063,530.728,14.321,555.182.275h68.875V-315h-74.479l-6.3-.085L1848.133-312c-.239.173-24.252,17.268-101.034,25.563-71.673,7.74-204.727,9.119-431.421-28.28-153.852-25.377-298.423-33.242-418.533-33.238q-83.661-.021-167.005,5.12c-86.893,5.4-154.468,13.819-196.572,20.068Z" fill="#fff"/>
      <path id="Path_20-2" data-name="Path 20" d="M1308.806-299.187c406.539,67.063,530.728,14.321,555.182.275h68.875v-5.026h-68.875c-24.456,14.046-148.644,66.784-555.182-.277C1077.925-342.3,868.14-340.27,732.812-331.861c-89.322,5.554-158.562,14.5-199.247,20.677v5.03c40.686-6.174,109.927-15.121,199.247-20.673C868.141-335.242,1077.925-337.276,1308.806-299.187Z" fill="#aeb0b2"/>
    </g>
    <g id="Group_16" data-name="Group 16">
      <g id="Group_11" data-name="Group 11">
        <g id="Group_8" data-name="Group 8">
          <path id="Path_24" data-name="Path 24" d="M436.005-282.435a8.416,8.416,0,0,0-8.414-8.418H357.339a8.409,8.409,0,0,0-8.409,8.409v.009h0a8.407,8.407,0,0,0,8.4,8.407h70.253A8.414,8.414,0,0,0,436.005-282.435Z" fill="#aeb0b2"/>
        </g>
        <g id="Group_9" data-name="Group 9">
          <path id="Path_25" data-name="Path 25" d="M357.339-282.44h70.249a8.377,8.377,0,0,0,7.245-4.207,8.28,8.28,0,0,1,1.172,4.207,8.413,8.413,0,0,1-8.417,8.407H357.339a8.407,8.407,0,0,1-8.409-8.4v0a8.3,8.3,0,0,1,1.166-4.207A8.373,8.373,0,0,0,357.339-282.44Z" fill="#eeefef"/>
        </g>
        <g id="Group_10" data-name="Group 10">
          <path id="Path_26" data-name="Path 26" d="M440.049-282.436a12.476,12.476,0,0,1-12.461,12.46H357.34a12.461,12.461,0,0,1-12.461-12.461A12.461,12.461,0,0,1,357.34-294.9h70.248A12.472,12.472,0,0,1,440.049-282.436Zm-12.461,4.364a4.366,4.366,0,0,0,4.36-4.371,4.365,4.365,0,0,0-4.36-4.361H357.34a4.366,4.366,0,0,0-4.361,4.371,4.366,4.366,0,0,0,4.361,4.361Z" fill="#1d1d1d"/>
        </g>
      </g>
      <g id="Group_15" data-name="Group 15">
        <g id="Group_12" data-name="Group 12">
          <path id="Path_27" data-name="Path 27" d="M436.005-357.659a8.419,8.419,0,0,0-8.417-8.415H357.339a8.411,8.411,0,0,0-8.409,8.413v0h0a8.4,8.4,0,0,0,8.391,8.409h70.267a8.412,8.412,0,0,0,8.417-8.4Z" fill="#aeb0b2"/>
        </g>
        <g id="Group_13" data-name="Group 13">
          <path id="Path_28" data-name="Path 28" d="M357.339-357.658h70.249a8.385,8.385,0,0,0,7.245-4.207,8.3,8.3,0,0,1,1.172,4.207,8.411,8.411,0,0,1-8.413,8.409H357.339a8.357,8.357,0,0,1-8.409-8.3,8.363,8.363,0,0,1,1.166-4.31A8.379,8.379,0,0,0,357.339-357.658Z" fill="#eeefef"/>
        </g>
        <g id="Group_14" data-name="Group 14">
          <path id="Path_29" data-name="Path 29" d="M440.049-357.659A12.471,12.471,0,0,1,427.588-345.2H357.34a12.459,12.459,0,0,1-12.459-12.458,12.459,12.459,0,0,1,12.459-12.458h70.248A12.47,12.47,0,0,1,440.049-357.659ZM427.588-353.3a4.362,4.362,0,0,0,4.294-4.427,4.362,4.362,0,0,0-4.294-4.294H357.34a4.362,4.362,0,0,0-4.295,4.427,4.362,4.362,0,0,0,4.295,4.294Z" fill="#1d1d1d"/>
        </g>
      </g>
    </g>
    <path id="Path_30" data-name="Path 30" d="M582.806-302.283H515v-35.531h67.808A16.018,16.018,0,0,1,598.827-321.8v3.5A16.02,16.02,0,0,1,582.806-302.283Z" fill="#eeefef"/>
    <path id="Path_31" data-name="Path 31" d="M582.806-302.283H515v-10.879h60.01a16.016,16.016,0,0,0,16.021-16.011v-3.507a16.1,16.1,0,0,0-.293-3.027,16,16,0,0,1,8.09,13.906v3.5a16.019,16.019,0,0,1-16.02,16.018Z" fill="#aeb0b2"/>
    <path id="Path_32" data-name="Path 32" d="M602.873-321.8v3.5A20.091,20.091,0,0,1,582.8-298.23H515a4.05,4.05,0,0,1-4.045-4.049v-35.535A4.046,4.046,0,0,1,515-341.863h67.808A20.09,20.09,0,0,1,602.873-321.8Zm-83.824,15.466H582.8A11.987,11.987,0,0,0,594.776-318.3v-3.5A11.986,11.986,0,0,0,582.8-333.77H519.048Z" fill="#1d1d1d"/>
    <path id="Path_33" data-name="Path 33" d="M485.514-246.995H416.361a16.727,16.727,0,0,1-16.729-16.724V-376.375a16.728,16.728,0,0,1,16.724-16.73h69.158Z" fill="#eeefef"/>
    <rect id="Rectangle_3" data-name="Rectangle 3" width="24.296" height="146.11" transform="translate(464.155 -393.105)" fill="#aeb0b2"/>
    <path id="Path_34" data-name="Path 34" d="M489.564-393.105v146.11a4.051,4.051,0,0,1-4.05,4.047H416.362a20.8,20.8,0,0,1-20.781-20.777v-112.65a20.8,20.8,0,0,1,20.781-20.778h69.153A4.05,4.05,0,0,1,489.564-393.105Zm-8.1,142.059V-389.053h-65.1a12.692,12.692,0,0,0-12.683,12.678v112.65a12.7,12.7,0,0,0,12.682,12.679Z" fill="#1d1d1d"/>
    <path id="Path_35" data-name="Path 35" d="M500.688-385.238c0-7.142-5.463-12.936-12.19-12.936h0c-6.74,0-12.2,5.794-12.2,12.936v130.374c0,7.146,5.458,12.936,12.2,12.936h0c6.727,0,12.19-5.79,12.19-12.936Z" fill="#eeefef"/>
    <path id="Path_36" data-name="Path 36" d="M488.5-241.927a11.63,11.63,0,0,1-6.107-1.743,13.065,13.065,0,0,0,6.1-11.194V-385.238a13.07,13.07,0,0,0-6.1-11.191,11.59,11.59,0,0,1,6.107-1.745c6.726,0,12.19,5.794,12.19,12.936v130.374C500.687-247.717,495.225-241.927,488.5-241.927Z" fill="#aeb0b2"/>
    <path id="Path_37" data-name="Path 37" d="M504.735-385.237v130.374c0,9.368-7.282,16.984-16.237,16.984s-16.247-7.616-16.247-16.984V-385.237c0-9.365,7.293-16.988,16.247-16.988S504.735-394.6,504.735-385.237Zm-8.1,130.374V-385.237c0-4.9-3.654-8.887-8.14-8.887s-8.144,3.986-8.144,8.887v130.374c0,4.9,3.652,8.894,8.144,8.894s8.144-3.991,8.144-8.894Z" fill="#1d1d1d"/>
    <path id="Path_38" data-name="Path 38" d="M524.756-275.049H500.688v-90h24.068a13.232,13.232,0,0,1,13.238,13.228h0v63.534a13.232,13.232,0,0,1-13.229,13.237Z" fill="#eeefef"/>
    <path id="Path_39" data-name="Path 39" d="M524.756-275.049h-11.13a13.239,13.239,0,0,0,13.245-13.233v-63.539a13.239,13.239,0,0,0-13.245-13.228h11.13a13.232,13.232,0,0,1,13.238,13.228h0v63.534a13.232,13.232,0,0,1-13.229,13.237Z" fill="#aeb0b2"/>
    <path id="Path_40" data-name="Path 40" d="M542.043-351.821v63.534A17.312,17.312,0,0,1,524.756-271h-24.07a4.048,4.048,0,0,1-4.049-4.047v-90.005a4.049,4.049,0,0,1,4.049-4.049h24.069A17.307,17.307,0,0,1,542.043-351.821ZM504.733-279.1h20.022a9.2,9.2,0,0,0,9.193-9.189v-63.533a9.2,9.2,0,0,0-9.193-9.18H504.734Z" fill="#1d1d1d"/>
    <g id="Group_20" data-name="Group 20">
      <g id="Group_17" data-name="Group 17">
        <rect id="Rectangle_4" data-name="Rectangle 4" width="28.626" height="17.621" transform="translate(399.632 -328.859)" fill="#aeb0b2"/>
      </g>
      <g id="Group_18" data-name="Group 18">
        <rect id="Rectangle_5" data-name="Rectangle 5" width="28.626" height="8.809" transform="translate(399.632 -320.047)" fill="#eeefef"/>
      </g>
      <g id="Group_19" data-name="Group 19">
        <path id="Path_41" data-name="Path 41" d="M432.311-328.859v17.619a4.049,4.049,0,0,1-4.051,4.049H399.632a4.046,4.046,0,0,1-4.049-4.043v-17.625a4.049,4.049,0,0,1,4.045-4.051h28.629a4.052,4.052,0,0,1,4.054,4.05ZM403.68-315.284h20.526v-9.531H403.68Z" fill="#1d1d1d"/>
      </g>
    </g>
    <g id="Group_21" data-name="Group 21">
      <line id="Line_1" data-name="Line 1" y1="54.346" transform="translate(517.917 -347.221)" fill="none"/>
      <path id="Path_42" data-name="Path 42" d="M517.918-351.27a4.053,4.053,0,0,0-4.05,4.049v54.343a4.05,4.05,0,0,0,4.05,4.05,4.05,4.05,0,0,0,4.05-4.05v-54.343A4.05,4.05,0,0,0,517.918-351.27Z" fill="#1d1d1d"/>
    </g>
    <path id="Path_49" data-name="Path 49" d="M118.558-302.283h67.806v-35.531H118.558A16.015,16.015,0,0,0,102.537-321.8v3.507a16.017,16.017,0,0,0,16.019,16.015Z" fill="#eeefef"/>
    <path id="Path_50" data-name="Path 50" d="M118.558-302.283h67.806v-10.879H126.358a16.016,16.016,0,0,1-16.02-16.014v-3.5a16.189,16.189,0,0,1,.293-3.027,16,16,0,0,0-8.092,13.906v3.5a16.017,16.017,0,0,0,16.016,16.018Z" fill="#aeb0b2"/>
    <path id="Path_51" data-name="Path 51" d="M118.559-341.863h67.806a4.042,4.042,0,0,1,4.043,4.041v35.544a4.045,4.045,0,0,1-4.041,4.049H118.559A20.091,20.091,0,0,1,98.491-318.3v-3.5A20.088,20.088,0,0,1,118.559-341.863Zm63.756,8.1H118.559a11.985,11.985,0,0,0-11.971,11.969v3.5a11.985,11.985,0,0,0,11.971,11.969h63.754Z" fill="#1d1d1d"/>
    <path id="Path_52" data-name="Path 52" d="M176.608-275.049h24.069v-90H176.608a13.232,13.232,0,0,0-13.236,13.228h0v63.534A13.232,13.232,0,0,0,176.6-275.049Z" fill="#eeefef"/>
    <path id="Path_53" data-name="Path 53" d="M176.608-275.049h11.128A13.234,13.234,0,0,1,174.5-288.281v-63.54a13.234,13.234,0,0,1,13.236-13.228H176.608a13.232,13.232,0,0,0-13.236,13.228h0v63.534A13.232,13.232,0,0,0,176.6-275.049Z" fill="#aeb0b2"/>
    <path id="Path_54" data-name="Path 54" d="M176.607-369.1h24.069a4.051,4.051,0,0,1,4.052,4.048h0v90A4.05,4.05,0,0,1,200.682-271H176.607a17.309,17.309,0,0,1-17.287-17.287v-63.536A17.3,17.3,0,0,1,176.607-369.1Zm20.019,8.1H176.607a9.2,9.2,0,0,0-9.189,9.18v63.534a9.2,9.2,0,0,0,9.189,9.189h20.019Z" fill="#1d1d1d"/>
    <g id="Group_23" data-name="Group 23">
      <line id="Line_2" data-name="Line 2" y1="54.346" transform="translate(183.447 -347.221)" fill="none"/>
      <path id="Path_55" data-name="Path 55" d="M183.446-351.27a4.051,4.051,0,0,1,4.052,4.048h0v54.343a4.05,4.05,0,0,1-4.05,4.05,4.05,4.05,0,0,1-4.05-4.05v-54.343a4.044,4.044,0,0,1,4.039-4.049Z" fill="#1d1d1d"/>
    </g>
    <g id="Group_26" data-name="Group 26">
      <g id="Group_24" data-name="Group 24">
        <path id="Path_56" data-name="Path 56" d="M286.555-393.1H217.4a16.725,16.725,0,0,0-16.728,16.724v112.652a16.726,16.726,0,0,0,16.724,16.73h69.154Z" fill="#eeefef"/>
        <rect id="Rectangle_6" data-name="Rectangle 6" width="24.289" height="146.106" transform="translate(265.202 -393.101)" fill="#aeb0b2"/>
        <path id="Path_57" data-name="Path 57" d="M286.556-242.946H217.4a20.8,20.8,0,0,1-20.778-20.777V-376.367A20.8,20.8,0,0,1,217.4-397.152h69.151a4.054,4.054,0,0,1,4.051,4.052v146.107A4.054,4.054,0,0,1,286.556-242.946ZM217.4-389.052a12.7,12.7,0,0,0-12.677,12.688v112.64A12.7,12.7,0,0,0,217.4-251.041h65.1V-389.052Z" fill="#1d1d1d"/>
        <path id="Path_58" data-name="Path 58" d="M301.73-254.863c0,7.146-5.458,12.936-12.191,12.936h0c-6.736,0-12.194-5.79-12.194-12.936V-385.237c0-7.142,5.458-12.936,12.194-12.936h0c6.734,0,12.194,5.794,12.194,12.936Z" fill="#eeefef"/>
        <path id="Path_59" data-name="Path 59" d="M289.538-398.173a11.542,11.542,0,0,0-6.1,1.745,13.077,13.077,0,0,1,6.1,11.191v130.374a13.074,13.074,0,0,1-6.094,11.194,11.581,11.581,0,0,0,6.1,1.743c6.735,0,12.192-5.79,12.192-12.936V-385.236C301.732-392.379,296.272-398.173,289.538-398.173Z" fill="#aeb0b2"/>
        <path id="Path_60" data-name="Path 60" d="M289.538-237.879c-8.957,0-16.241-7.616-16.241-16.984V-385.237c0-9.365,7.286-16.988,16.241-16.988s16.245,7.622,16.245,16.988v130.374C305.777-245.495,298.493-237.879,289.538-237.879Zm0-156.245c-4.491,0-8.149,3.986-8.149,8.887v130.374c0,4.9,3.658,8.894,8.149,8.894s8.142-3.99,8.142-8.894V-385.237C297.683-390.138,294.029-394.124,289.538-394.124Z" fill="#1d1d1d"/>
      </g>
      <g id="Group_25" data-name="Group 25">
        <path id="Path_61" data-name="Path 61" d="M254.033-297.106H225.991a4.048,4.048,0,0,0-4.042,4.052,4.048,4.048,0,0,0,4.042,4.042h28.042a4.046,4.046,0,0,0,4.052-4.042,4.047,4.047,0,0,0-4.042-4.052Z" fill="#1d1d1d"/>
        <path id="Path_62" data-name="Path 62" d="M225.991-307h28.042a4.047,4.047,0,0,0,4.051-4.042,4.046,4.046,0,0,0-4.042-4.05H225.991a4.045,4.045,0,0,0-4.041,4.05A4.045,4.045,0,0,0,225.991-307Z" fill="#1d1d1d"/>
        <path id="Path_63" data-name="Path 63" d="M225.991-325h28.042a4.047,4.047,0,0,0,4.051-4.042,4.046,4.046,0,0,0-4.042-4.05H225.991a4.045,4.045,0,0,0-4.041,4.05A4.045,4.045,0,0,0,225.991-325Z" fill="#1d1d1d"/>
        <path id="Path_64" data-name="Path 64" d="M225.991-342.989h28.042a4.05,4.05,0,0,0,4.05-4.05,4.05,4.05,0,0,0-4.05-4.05H225.991a4.05,4.05,0,0,0-4.05,4.05A4.05,4.05,0,0,0,225.991-342.989Z" fill="#1d1d1d"/>
      </g>
    </g>
  </g>
</svg>
